<?xml version="1.0" encoding="UTF-8" standalone="no" ?>
<!DOCTYPE svg PUBLIC "-//W3C//DTD SVG 1.1//EN" "http://www.w3.org/Graphics/SVG/1.1/DTD/svg11.dtd">
<svg xmlns="http://www.w3.org/2000/svg" xmlns:xlink="http://www.w3.org/1999/xlink" version="1.1" width="1280" height="1024" viewBox="0 0 1280 1024" xml:space="preserve">
<desc>Created with Fabric.js 4.4.0</desc>
<defs>
</defs>
<g transform="matrix(1 0 0 1 640 512)" id="background-logo"  >
<rect style="stroke: none; stroke-width: 0; stroke-dasharray: none; stroke-linecap: butt; stroke-dashoffset: 0; stroke-linejoin: miter; stroke-miterlimit: 4; fill: rgb(255,255,255); fill-opacity: 0; fill-rule: nonzero; opacity: 1;"  paint-order="stroke"  x="-640" y="-512" rx="0" ry="0" width="1280" height="1024" />
</g>
<g transform="matrix(1.9211538461538462 0 0 1.9211538461538462 640 383.2752147286534)" id="logo-logo"  >
<g style=""  paint-order="stroke"   >
		<g transform="matrix(2.3359794256333224 0 0 -2.3359794256333224 -0.008292726961030894 0.08362806343768625)"  >
<linearGradient id="SVGID_6_183877" gradientUnits="userSpaceOnUse" gradientTransform="matrix(56.539974 -56.539974 -56.539974 -56.539974 48.672501 101.0425)"  x1="0" y1="0" x2="1" y2="0">
<stop offset="0%" style="stop-color:rgb(13,226,249);stop-opacity: 1"/>
<stop offset="27.345118000000003%" style="stop-color:rgb(13,226,249);stop-opacity: 1"/>
<stop offset="100%" style="stop-color:rgb(101,110,255);stop-opacity: 1"/>
</linearGradient>
<path style="stroke: none; stroke-width: 1; stroke-dasharray: none; stroke-linecap: butt; stroke-dashoffset: 0; stroke-linejoin: miter; stroke-miterlimit: 4; fill: url(#SVGID_6_183877); fill-rule: nonzero; opacity: 1;"  paint-order="stroke"  transform=" translate(-76.94125, -72.77524999999999)" d="M 67.95 120.32 L 63.120000000000005 115.49 C 63.78 114.39999999999999 63.64000000000001 112.97999999999999 62.720000000000006 112.05 L 62.720000000000006 112.05 C 62.17000000000001 111.50999999999999 61.46000000000001 111.22 60.75000000000001 111.22 L 60.75000000000001 111.22 C 60.230000000000004 111.22 59.730000000000004 111.37 59.28000000000001 111.65 L 59.28000000000001 111.65 L 46.16 98.5 L 49 95.66 C 49.66 95 49.66 93.88 49 93.22 L 49 93.22 L 46.13 90.35 C 45.45 89.66999999999999 44.36 89.66999999999999 43.690000000000005 90.35 L 43.690000000000005 90.35 L 40.830000000000005 93.19999999999999 L 38.81 91.17999999999999 C 39.03 91.08999999999999 39.22 90.94999999999999 39.38 90.77999999999999 L 39.38 90.77999999999999 L 39.830000000000005 90.34999999999998 C 40.50000000000001 89.66999999999997 40.50000000000001 88.57999999999998 39.830000000000005 87.90999999999998 L 39.830000000000005 87.90999999999998 L 39.38 87.45999999999998 C 38.720000000000006 86.79999999999998 37.63 86.79999999999998 36.940000000000005 87.45999999999998 L 36.940000000000005 87.45999999999998 L 36.52 87.90999999999998 C 36.35 88.07999999999998 36.21 88.24999999999999 36.11000000000001 88.45999999999998 L 36.11000000000001 88.45999999999998 L 29.410000000000007 81.74999999999999 C 24.430000000000007 76.79999999999998 24.430000000000007 68.74999999999999 29.410000000000007 63.76999999999998 L 29.410000000000007 63.76999999999998 L 63.010000000000005 30.16999999999998 L 67.95 25.22999999999998 C 72.93 20.27999999999998 80.96000000000001 20.27999999999998 85.93 25.22999999999998 L 85.93 25.22999999999998 L 90.79 30.08999999999998 C 90.10000000000001 31.17999999999998 90.22000000000001 32.619999999999976 91.17 33.56999999999998 L 91.17 33.56999999999998 C 91.71000000000001 34.10999999999998 92.43 34.369999999999976 93.16 34.369999999999976 L 93.16 34.369999999999976 C 93.67999999999999 34.369999999999976 94.2 34.229999999999976 94.64999999999999 33.949999999999974 L 94.64999999999999 33.949999999999974 L 107.8 47.1 L 107.78 47.1 L 104.89 49.96 C 104.22 50.63 104.22 51.74 104.89 52.4 L 104.89 52.4 L 107.78 55.269999999999996 C 108.44 55.959999999999994 109.53 55.959999999999994 110.22 55.269999999999996 L 110.22 55.269999999999996 L 113.08 52.4 L 113.08 52.379999999999995 L 115.14 54.44 C 114.91 54.51 114.69 54.65 114.5 54.839999999999996 L 114.5 54.839999999999996 L 114.05 55.269999999999996 C 113.39 55.959999999999994 113.39 57.05 114.05 57.709999999999994 L 114.05 57.709999999999994 L 114.5 58.16 C 115.17 58.81999999999999 116.28 58.81999999999999 116.94 58.16 L 116.94 58.16 L 117.39 57.709999999999994 C 117.58 57.519999999999996 117.7 57.309999999999995 117.8 57.089999999999996 L 117.8 57.089999999999996 L 124.47999999999999 63.769999999999996 C 129.45 68.75 129.45 76.8 124.47999999999999 81.75 L 124.47999999999999 81.75 L 104.47999999999999 101.76 L 85.92999999999999 120.32000000000001 C 83.445 122.795 80.195 124.033 76.94399999999999 124.033 L 76.94399999999999 124.033 C 73.692 124.033 70.43999999999998 122.795 67.94999999999999 120.32000000000001 M 58.45 99.76 L 58 100.21 C 57.34 100.86999999999999 57.34 101.96 58 102.64999999999999 L 58 102.64999999999999 L 58.45 103.08 C 59.120000000000005 103.76 60.21 103.76 60.89 103.08 L 60.89 103.08 L 61.34 102.64999999999999 C 62.010000000000005 101.96 62.010000000000005 100.86999999999999 61.34 100.21 L 61.34 100.21 L 60.89 99.75999999999999 C 60.55 99.42999999999999 60.108000000000004 99.26499999999999 59.666000000000004 99.26499999999999 L 59.666000000000004 99.26499999999999 C 59.225 99.26499999999999 58.785000000000004 99.42999999999999 58.45 99.75999999999999 M 92.99000000000001 42.54999999999999 L 92.57000000000001 42.96999999999999 C 91.88000000000001 43.65999999999999 91.88000000000001 44.74999999999999 92.57000000000001 45.40999999999999 L 92.57000000000001 45.40999999999999 L 92.99000000000001 45.85999999999999 C 93.68 46.529999999999994 94.77000000000001 46.529999999999994 95.43 45.85999999999999 L 95.43 45.85999999999999 L 95.88000000000001 45.40999999999999 C 96.55000000000001 44.74999999999999 96.55000000000001 43.65999999999999 95.88000000000001 42.96999999999999 L 95.88000000000001 42.96999999999999 L 95.43 42.55 C 95.1 42.205 94.662 42.032 94.221 42.032 L 94.221 42.032 C 93.78 42.032 93.33500000000001 42.205 92.99000000000001 42.55" stroke-linecap="round" />
</g>
		<g transform="matrix(2.3359794256333224 0 0 -2.3359794256333224 95.77807642524823 84.99969215691911)"  >
<path style="stroke: none; stroke-width: 1; stroke-dasharray: none; stroke-linecap: butt; stroke-dashoffset: 0; stroke-linejoin: miter; stroke-miterlimit: 4; fill: rgb(66,136,255); fill-rule: nonzero; opacity: 1;"  paint-order="stroke"  transform=" translate(1.6447499999999984, -9.354875)" d="M 0 0 L -3.359 3.359 C -3.644 3.644 -3.644 4.105 -3.359 4.389 L 0 7.748 C 0.284 8.033 0.745 8.033 1.029 7.748 L 4.388999999999999 4.389 C 4.672999999999999 4.105 4.672999999999999 3.644 4.388999999999999 3.359 L 1.029 0 C 0.745 -0.284 0.284 -0.284 0 0 M 5.311 21.377 L 2.785 23.901999999999997 C 2.5010000000000003 24.186999999999998 2.5010000000000003 24.647 2.785 24.932 L 5.311 27.456999999999997 C 5.595 27.741999999999997 6.056 27.741999999999997 6.34 27.456999999999997 L 8.866 24.932 C 9.15 24.647 9.15 24.186999999999998 8.866 23.901999999999997 L 6.34 21.377 C 6.056 21.092 5.595 21.092 5.311 21.377 M 5.311 8.777999999999999 L 1.029 13.058999999999997 C 0.7449999999999999 13.342999999999998 0.7449999999999999 13.803999999999997 1.029 14.087999999999997 L 5.311 18.368999999999996 C 5.595 18.653999999999996 6.056 18.653999999999996 6.34 18.368999999999996 L 10.620999999999999 14.087999999999997 C 10.905 13.803999999999997 10.905 13.342999999999998 10.620999999999999 13.058999999999997 L 6.34 8.778 C 6.056 8.494 5.595 8.494 5.311 8.778 M -3.4670000000000005 10.138 L -6.388 13.059 C -6.672 13.343 -6.672 13.803999999999998 -6.388 14.088 L -3.467 17.009 C -3.1830000000000003 17.293 -2.722 17.293 -2.438 17.009 L 0.48299999999999965 14.088000000000001 C 0.7669999999999997 13.804 0.7669999999999997 13.343000000000002 0.48299999999999965 13.059000000000001 L -2.438 10.138000000000002 C -2.722 9.854000000000001 -3.1830000000000003 9.854000000000001 -3.467 10.138000000000002 M -14.904 5.013000000000002 L -18.468 8.577000000000002 C -18.804 8.913000000000002 -18.804 9.457000000000003 -18.468 9.792000000000002 L -14.904 13.356000000000002 C -14.568999999999999 13.692000000000002 -14.025 13.692000000000002 -13.689 13.356000000000002 L -10.125 9.792000000000002 C -9.789 9.457 -9.789 8.913000000000002 -10.125 8.577000000000002 L -13.689 5.013000000000002 C -14.025 4.677000000000001 -14.569 4.677000000000001 -14.904 5.013000000000002 M -15.609 -5.829999999999998 L -17.273 -4.165999999999999 C -17.608999999999998 -3.8299999999999987 -17.608999999999998 -3.2859999999999987 -17.273 -2.9499999999999984 L -15.609 -1.2859999999999985 C -15.273 -0.9499999999999984 -14.729 -0.9499999999999984 -14.393 -1.2859999999999985 L -12.729000000000001 -2.9499999999999984 C -12.394 -3.2859999999999983 -12.394 -3.8299999999999983 -12.729000000000001 -4.165999999999999 L -14.393 -5.829999999999998 C -14.729000000000001 -6.164999999999998 -15.273000000000001 -6.164999999999998 -15.609 -5.829999999999998 M 8.773 -8.709 L 7.108 -7.045 C 6.773 -6.71 6.773 -6.165 7.108 -5.83 L 8.773 -4.166 C 9.108 -3.8300000000000005 9.652 -3.8300000000000005 9.988 -4.166 L 11.652 -5.83 C 11.988 -6.165 11.988 -6.71 11.652 -7.045 L 9.988 -8.709 C 9.652 -9.045 9.107999999999999 -9.045 8.773 -8.709 M 16.947 4.6240000000000006 L 14.892999999999999 6.679 C 14.478 7.093 14.478 7.765000000000001 14.892999999999999 8.179 L 16.947 10.234 C 17.361 10.648 18.032999999999998 10.648 18.448 10.234 L 20.502 8.179 C 20.916 7.765000000000001 20.916 7.093 20.502 6.679 L 18.448 4.624 C 18.033 4.21 17.361 4.21 16.947 4.624 M -21.116 -7.324 L -23.85 -4.59 C -24.186 -4.254 -24.186 -3.71 -23.85 -3.3739999999999997 L -21.116 -0.6399999999999997 C -20.78 -0.30399999999999966 -20.236 -0.30399999999999966 -19.9 -0.6399999999999997 L -17.165999999999997 -3.3739999999999997 C -16.83 -3.7099999999999995 -16.83 -4.254 -17.165999999999997 -4.59 L -19.9 -7.324 C -20.235999999999997 -7.66 -20.779999999999998 -7.66 -21.116 -7.324" stroke-linecap="round" />
</g>
		<g transform="matrix(2.3359794256333224 0 0 -2.3359794256333224 -95.77807642524826 -84.99969215691914)"  >
<path style="stroke: none; stroke-width: 1; stroke-dasharray: none; stroke-linecap: butt; stroke-dashoffset: 0; stroke-linejoin: miter; stroke-miterlimit: 4; fill: rgb(13,226,249); fill-rule: nonzero; opacity: 1;"  paint-order="stroke"  transform=" translate(-1.6447499999999984, 9.354875)" d="M 0 0 L 3.359 -3.359 C 3.644 -3.644 3.644 -4.105 3.359 -4.389 L 0 -7.748 C -0.284 -8.033 -0.745 -8.033 -1.029 -7.748 L -4.388999999999999 -4.389 C -4.672999999999999 -4.105 -4.672999999999999 -3.644 -4.388999999999999 -3.359 L -1.029 0 C -0.745 0.284 -0.284 0.284 0 0 M -5.311 -21.377 L -2.785 -23.901999999999997 C -2.5010000000000003 -24.186999999999998 -2.5010000000000003 -24.647 -2.785 -24.932 L -5.311 -27.456999999999997 C -5.595 -27.741999999999997 -6.056 -27.741999999999997 -6.34 -27.456999999999997 L -8.866 -24.932 C -9.15 -24.647 -9.15 -24.186999999999998 -8.866 -23.901999999999997 L -6.34 -21.377 C -6.056 -21.092 -5.595 -21.092 -5.311 -21.377 M -5.311 -8.777999999999999 L -1.029 -13.058999999999997 C -0.7449999999999999 -13.342999999999998 -0.7449999999999999 -13.803999999999997 -1.029 -14.087999999999997 L -5.311 -18.368999999999996 C -5.595 -18.653999999999996 -6.056 -18.653999999999996 -6.34 -18.368999999999996 L -10.620999999999999 -14.087999999999997 C -10.905 -13.803999999999997 -10.905 -13.342999999999998 -10.620999999999999 -13.058999999999997 L -6.339999999999999 -8.777999999999999 C -6.055999999999999 -8.493999999999998 -5.594999999999999 -8.493999999999998 -5.310999999999999 -8.777999999999999 M 3.4670000000000014 -10.137999999999998 L 6.388000000000002 -13.058999999999997 C 6.6720000000000015 -13.342999999999998 6.6720000000000015 -13.803999999999997 6.388000000000002 -14.087999999999997 L 3.467000000000002 -17.008999999999997 C 3.183000000000002 -17.292999999999996 2.7220000000000018 -17.292999999999996 2.438000000000002 -17.008999999999997 L -0.4829999999999979 -14.087999999999997 C -0.7669999999999979 -13.803999999999997 -0.7669999999999979 -13.342999999999998 -0.4829999999999979 -13.058999999999997 L 2.438000000000002 -10.137999999999998 C 2.7220000000000018 -9.853999999999997 3.183000000000002 -9.853999999999997 3.467000000000002 -10.137999999999998 M 14.904000000000002 -5.012999999999998 L 18.468000000000004 -8.576999999999998 C 18.804000000000002 -8.912999999999998 18.804000000000002 -9.456999999999999 18.468000000000004 -9.791999999999998 L 14.904000000000003 -13.355999999999998 C 14.569000000000003 -13.691999999999998 14.025000000000004 -13.691999999999998 13.689000000000004 -13.355999999999998 L 10.125000000000004 -9.791999999999998 C 9.789000000000003 -9.456999999999997 9.789000000000003 -8.912999999999998 10.125000000000004 -8.576999999999998 L 13.689000000000004 -5.012999999999998 C 14.025000000000004 -4.676999999999998 14.569000000000004 -4.676999999999998 14.904000000000003 -5.012999999999998 M 15.609 5.83 L 17.273 4.166 C 17.608999999999998 3.8300000000000005 17.608999999999998 3.2860000000000005 17.273 2.95 L 15.609 1.286 C 15.273 0.95 14.729 0.95 14.393 1.286 L 12.729 2.95 C 12.393999999999998 3.286 12.393999999999998 3.83 12.729 4.166 L 14.392999999999999 5.83 C 14.729 6.165 15.273 6.165 15.608999999999998 5.83 M -8.773 8.709 L -7.108 7.045 C -6.773 6.71 -6.773 6.165 -7.108 5.83 L -8.773 4.166 C -9.108 3.8300000000000005 -9.652 3.8300000000000005 -9.988 4.166 L -11.652 5.83 C -11.988 6.165 -11.988 6.71 -11.652 7.045 L -9.988 8.709 C -9.652 9.045 -9.107999999999999 9.045 -8.773 8.709 M -16.947 -4.6240000000000006 L -14.892999999999999 -6.679 C -14.478 -7.093 -14.478 -7.765000000000001 -14.892999999999999 -8.179 L -16.947 -10.234 C -17.361 -10.648 -18.032999999999998 -10.648 -18.448 -10.234 L -20.502 -8.179 C -20.916 -7.765000000000001 -20.916 -7.093 -20.502 -6.679 L -18.448 -4.6240000000000006 C -18.033 -4.210000000000001 -17.361 -4.210000000000001 -16.947 -4.6240000000000006 M 21.116 7.324 L 23.85 4.59 C 24.186 4.254 24.186 3.71 23.85 3.3739999999999997 L 21.116 0.64 C 20.78 0.304 20.236 0.304 19.9 0.64 L 17.165999999999997 3.374 C 16.83 3.71 16.83 4.2540000000000004 17.165999999999997 4.59 L 19.9 7.324 C 20.235999999999997 7.66 20.779999999999998 7.66 21.116 7.324" stroke-linecap="round" />
</g>
		<g transform="matrix(2.3359794256333224 0 0 -2.3359794256333224 43.598603201049 26.0982629370032)"  >
<path style="stroke: none; stroke-width: 1; stroke-dasharray: none; stroke-linecap: butt; stroke-dashoffset: 0; stroke-linejoin: miter; stroke-miterlimit: 4; fill: rgb(66,136,255); fill-rule: nonzero; opacity: 1;"  paint-order="stroke"  transform=" translate(0.271250000000002, -18.66875)" d="M 0 0 L -0.45 -0.42 C -1.11 -1.1099999999999999 -2.2 -1.1099999999999999 -2.89 -0.42 L -3.31 0 C -4 0.69 -4 1.78 -3.31 2.44 L -2.89 2.89 C -2.2 3.56 -1.11 3.56 -0.4500000000000002 2.89 L 0 2.44 C 0.67 1.78 0.67 0.69 0 0 M 28.6 38.78 L 8.6 58.79 C 3.9 39.31 -7.89 3.01 -32.87 -12.8 L -27.929999999999996 -17.740000000000002 C -22.949999999999996 -22.69 -14.919999999999996 -22.69 -9.949999999999996 -17.740000000000002 L -5.089999999999995 -12.880000000000003 C -5.779999999999996 -11.790000000000003 -5.659999999999996 -10.350000000000003 -4.7099999999999955 -9.400000000000002 C -4.1699999999999955 -8.860000000000003 -3.4499999999999957 -8.600000000000001 -2.7199999999999953 -8.600000000000001 C -2.1999999999999953 -8.600000000000001 -1.6799999999999953 -8.740000000000002 -1.2299999999999953 -9.020000000000001 L 11.92 4.13 L 11.9 4.13 L 9.01 6.99 C 8.34 7.66 8.34 8.77 9.01 9.43 L 11.9 12.3 C 12.56 12.99 13.65 12.99 14.34 12.3 L 17.2 9.43 L 17.2 9.41 L 19.259999999999998 11.47 C 19.029999999999998 11.540000000000001 18.81 11.680000000000001 18.619999999999997 11.870000000000001 L 18.169999999999998 12.3 C 17.509999999999998 12.99 17.509999999999998 14.08 18.169999999999998 14.74 L 18.619999999999997 15.19 C 19.29 15.85 20.4 15.85 21.06 15.19 L 21.509999999999998 14.74 C 21.7 14.55 21.819999999999997 14.34 21.919999999999998 14.120000000000001 L 28.599999999999998 20.8 C 33.57 25.78 33.57 33.83 28.599999999999998 38.78" stroke-linecap="round" />
</g>
</g>
</g>
<g transform="matrix(1.9211538461538462 0 0 1.9211538461538462 640.8993401442307 730.2167967088004)" id="text-logo"  >
<g style=""  paint-order="stroke"   >
		<g transform="matrix(1 0 0 1 0 0)" id="text-logo-path-0"  >
<path style="stroke: none; stroke-width: 0; stroke-dasharray: none; stroke-linecap: butt; stroke-dashoffset: 0; stroke-linejoin: miter; stroke-miterlimit: 4; fill: rgb(66,136,255); fill-rule: nonzero; opacity: 1;"  paint-order="stroke"  transform=" translate(-308.33, 19.605)" d="M 24.96 0 L 5.03 0 L 5.03 -39.21 L 24.96 -39.21 Q 28.11 -39.21 30.64 -38.24 Q 33.17 -37.27 34.96 -35.48 Q 36.75 -33.69 37.72 -31.14 Q 38.69 -28.6 38.69 -25.48 L 38.69 -25.48 L 38.69 -13.73 Q 38.69 -10.61 37.72 -8.07 Q 36.75 -5.52 34.96 -3.73 Q 33.17 -1.94 30.64 -0.97 Q 28.11 0 24.96 0 L 24.96 0 Z M 10.64 -33.61 L 10.64 -5.61 L 24.96 -5.61 Q 28.88 -5.61 30.98 -7.71 Q 33.09 -9.82 33.09 -13.73 L 33.09 -13.73 L 33.09 -25.48 Q 33.09 -27.4 32.54 -28.9 Q 31.99 -30.41 30.94 -31.46 Q 29.89 -32.51 28.38 -33.06 Q 26.88 -33.61 24.96 -33.61 L 24.96 -33.61 L 10.64 -33.61 Z M 53.27 0 L 47.66 0 L 47.66 -39.21 L 53.27 -39.21 L 53.27 -22.39 L 75.71 -22.39 L 75.71 -39.21 L 81.32 -39.21 L 81.32 0 L 75.71 0 L 75.71 -16.79 L 53.27 -16.79 L 53.27 0 Z M 96.99 0 L 91.38 0 L 91.38 -39.21 L 96.99 -39.21 L 96.99 0 Z M 132.81 0 L 107.05 0 L 107.05 -39.21 L 112.66 -39.21 L 112.66 -5.61 L 132.81 -5.61 L 132.81 0 Z M 139.54 -5.61 L 139.54 -5.61 L 139.54 -33.61 Q 139.54 -34.75 139.97 -35.78 Q 140.41 -36.8 141.18 -37.56 Q 141.94 -38.31 142.97 -38.76 Q 143.99 -39.21 145.14 -39.21 L 145.14 -39.21 L 167.54 -39.21 Q 168.68 -39.21 169.71 -38.76 Q 170.73 -38.31 171.5 -37.56 Q 172.27 -36.8 172.7 -35.78 Q 173.14 -34.75 173.14 -33.61 L 173.14 -33.61 L 173.14 -5.61 Q 173.14 -4.46 172.7 -3.43 Q 172.27 -2.41 171.5 -1.64 Q 170.73 -0.88 169.71 -0.44 Q 168.68 0 167.54 0 L 167.54 0 L 145.14 0 Q 143.99 0 142.97 -0.44 Q 141.94 -0.88 141.18 -1.64 Q 140.41 -2.41 139.97 -3.43 Q 139.54 -4.46 139.54 -5.61 Z M 145.14 -33.61 L 145.14 -5.61 L 167.54 -5.61 L 167.54 -33.61 L 145.14 -33.61 Z M 183.2 -5.61 L 183.2 -5.61 L 183.2 -33.61 Q 183.2 -34.75 183.64 -35.78 Q 184.08 -36.8 184.84 -37.56 Q 185.61 -38.31 186.63 -38.76 Q 187.66 -39.21 188.81 -39.21 L 188.81 -39.21 L 210.08 -39.21 Q 211.23 -39.21 212.26 -38.76 Q 213.28 -38.31 214.05 -37.56 Q 214.81 -36.8 215.25 -35.78 Q 215.69 -34.75 215.69 -33.61 L 215.69 -33.61 L 215.69 -28.55 L 210.08 -28.55 L 210.08 -33.61 L 188.81 -33.61 L 188.81 -5.61 L 210.08 -5.61 L 210.08 -15.12 L 199.45 -15.12 L 199.45 -20.73 L 215.69 -20.73 L 215.69 -5.61 Q 215.69 -4.46 215.25 -3.43 Q 214.81 -2.41 214.05 -1.64 Q 213.28 -0.88 212.26 -0.44 Q 211.23 0 210.08 0 L 210.08 0 L 188.81 0 Q 187.66 0 186.63 -0.44 Q 185.61 -0.88 184.84 -1.64 Q 184.08 -2.41 183.64 -3.43 Q 183.2 -4.46 183.2 -5.61 Z M 231.36 0 L 225.75 0 L 225.75 -39.21 L 231.36 -39.21 L 231.36 0 Z M 240.87 -5.61 L 240.87 -5.61 L 240.87 -10.64 L 246.48 -10.64 L 246.48 -5.61 L 266.05 -5.61 L 266.05 -16.79 L 247.02 -16.79 Q 245.88 -16.79 244.85 -17.24 Q 243.82 -17.69 243.06 -18.44 Q 242.29 -19.2 241.86 -20.22 Q 241.42 -21.25 241.42 -22.39 L 241.42 -22.39 L 241.42 -33.61 Q 241.42 -34.75 241.86 -35.78 Q 242.29 -36.8 243.06 -37.56 Q 243.82 -38.31 244.85 -38.76 Q 245.88 -39.21 247.02 -39.21 L 247.02 -39.21 L 266.05 -39.21 Q 267.2 -39.21 268.23 -38.76 Q 269.25 -38.31 270.02 -37.56 Q 270.79 -36.8 271.22 -35.78 Q 271.66 -34.75 271.66 -33.61 L 271.66 -33.61 L 271.66 -28.55 L 266.05 -28.55 L 266.05 -33.61 L 247.02 -33.61 L 247.02 -22.39 L 266.05 -22.39 Q 267.2 -22.39 268.23 -21.96 Q 269.25 -21.52 270.02 -20.75 Q 270.79 -19.99 271.22 -18.96 Q 271.66 -17.94 271.66 -16.79 L 271.66 -16.79 L 271.66 -5.61 Q 271.66 -4.46 271.22 -3.43 Q 270.79 -2.41 270.02 -1.64 Q 269.25 -0.88 268.23 -0.44 Q 267.2 0 266.05 0 L 266.05 0 L 246.48 0 Q 245.33 0 244.3 -0.44 Q 243.28 -0.88 242.51 -1.64 Q 241.75 -2.41 241.31 -3.43 Q 240.87 -4.46 240.87 -5.61 Z M 291.27 -33.61 L 278.39 -33.61 L 278.39 -39.21 L 309.75 -39.21 L 309.75 -33.61 L 296.87 -33.61 L 296.87 0 L 291.27 0 L 291.27 -33.61 Z M 322.08 0 L 316.48 0 L 316.48 -39.21 L 322.08 -39.21 L 322.08 0 Z M 335.56 0 L 328.78 0 L 342.97 -19.77 L 329.08 -39.21 L 335.84 -39.21 L 346.31 -24.53 L 356.84 -39.21 L 363.62 -39.21 L 349.73 -19.77 L 363.92 0 L 357.14 0 L 346.31 -15.07 L 335.56 0 Z M 393.01 0 L 387.41 0 L 387.41 -39.21 L 408.87 -39.21 Q 418.39 -39.21 418.39 -29.67 L 418.39 -29.67 L 418.39 -24.09 Q 418.39 -14.55 408.87 -14.55 L 408.87 -14.55 L 393.01 -14.55 L 393.01 0 Z M 393.01 -33.61 L 393.01 -20.15 L 408.57 -20.15 Q 410.81 -20.15 411.8 -21.14 Q 412.78 -22.12 412.78 -24.36 L 412.78 -24.36 L 412.78 -29.39 Q 412.78 -31.64 411.8 -32.62 Q 410.81 -33.61 408.57 -33.61 L 408.57 -33.61 L 393.01 -33.61 Z M 437.96 0 L 422.84 -39.21 L 428.86 -39.21 L 441.05 -6.95 L 453.28 -39.21 L 459.27 -39.21 L 444.14 0 L 437.96 0 Z M 475.48 -33.61 L 462.6 -33.61 L 462.6 -39.21 L 493.96 -39.21 L 493.96 -33.61 L 481.09 -33.61 L 481.09 0 L 475.48 0 L 475.48 -33.61 Z M 543.24 0 L 517.48 0 L 517.48 -39.21 L 523.09 -39.21 L 523.09 -5.61 L 543.24 -5.61 L 543.24 0 Z M 552.75 -33.61 L 539.88 -33.61 L 539.88 -39.21 L 571.24 -39.21 L 571.24 -33.61 L 558.36 -33.61 L 558.36 0 L 552.75 0 L 552.75 -33.61 Z M 597.9 0 L 577.96 0 L 577.96 -39.21 L 597.9 -39.21 Q 601.04 -39.21 603.57 -38.24 Q 606.1 -37.27 607.89 -35.48 Q 609.68 -33.69 610.65 -31.14 Q 611.63 -28.6 611.63 -25.48 L 611.63 -25.48 L 611.63 -13.73 Q 611.63 -10.61 610.65 -8.07 Q 609.68 -5.52 607.89 -3.73 Q 606.1 -1.94 603.57 -0.97 Q 601.04 0 597.9 0 L 597.9 0 Z M 583.57 -33.61 L 583.57 -5.61 L 597.9 -5.61 Q 601.81 -5.61 603.91 -7.71 Q 606.02 -9.82 606.02 -13.73 L 606.02 -13.73 L 606.02 -25.48 Q 606.02 -27.4 605.47 -28.9 Q 604.93 -30.41 603.87 -31.46 Q 602.82 -32.51 601.32 -33.06 Q 599.81 -33.61 597.9 -33.61 L 597.9 -33.61 L 583.57 -33.61 Z" stroke-linecap="round" />
</g>
</g>
</g>
<g transform="matrix(1.9211538461538462 0 0 1.9211538461538462 640.0043150916466 835.3552231710828)" id="tagline-7d6b6a0a-97d0-4158-81dc-38737ca7ef95-logo"  >
<g style=""  paint-order="stroke"   >
		<g transform="matrix(1 0 0 1 0 0)" id="tagline-7d6b6a0a-97d0-4158-81dc-38737ca7ef95-logo-path-0"  >
<path style="stroke: none; stroke-width: 0; stroke-dasharray: none; stroke-linecap: butt; stroke-dashoffset: 0; stroke-linejoin: miter; stroke-miterlimit: 4; fill: rgb(66,136,255); fill-rule: nonzero; opacity: 1;"  paint-order="stroke"  transform=" translate(-111.55, 16.105)" d="M 27.6 0 L 4.13 0 L 4.13 -32.21 L 27.6 -32.21 L 27.6 -27.6 L 8.74 -27.6 L 8.74 -18.4 L 24.84 -18.4 L 24.84 -13.79 L 8.74 -13.79 L 8.74 -4.6 L 27.6 -4.6 L 27.6 0 Z M 48.49 0 L 33.58 0 L 33.58 -4.42 L 48.49 -4.42 L 48.49 -9.97 L 38 -9.97 Q 37.08 -9.97 36.27 -10.32 Q 35.47 -10.67 34.87 -11.26 Q 34.28 -11.86 33.93 -12.67 Q 33.58 -13.48 33.58 -14.4 L 33.58 -14.4 L 33.58 -19.5 Q 33.58 -20.42 33.93 -21.23 Q 34.28 -22.03 34.87 -22.63 Q 35.47 -23.22 36.27 -23.57 Q 37.08 -23.92 38 -23.92 L 38 -23.92 L 52 -23.92 L 52 -19.5 L 38 -19.5 L 38 -14.4 L 48.49 -14.4 Q 49.41 -14.4 50.21 -14.05 Q 51.01 -13.7 51.62 -13.11 Q 52.22 -12.51 52.57 -11.7 Q 52.92 -10.89 52.92 -9.97 L 52.92 -9.97 L 52.92 -4.42 Q 52.92 -3.5 52.57 -2.7 Q 52.22 -1.89 51.62 -1.29 Q 51.01 -0.7 50.21 -0.35 Q 49.41 0 48.49 0 L 48.49 0 Z M 64.26 -19.5 L 58.42 -19.5 L 58.42 -23.92 L 64.26 -23.92 L 64.26 -31.29 L 68.69 -31.29 L 68.69 -23.92 L 76.55 -23.92 L 76.55 -19.5 L 68.69 -19.5 L 68.69 -4.42 L 76.55 -4.42 L 76.55 0 L 68.69 0 Q 67.79 0 66.98 -0.35 Q 66.17 -0.7 65.56 -1.29 Q 64.96 -1.89 64.61 -2.7 Q 64.26 -3.5 64.26 -4.42 L 64.26 -4.42 L 64.26 -19.5 Z M 90.63 0 L 83.91 0 L 83.91 -6.72 L 90.63 -6.72 L 90.63 0 Z M 136.16 0 L 111.79 0 L 111.79 -8.47 Q 111.79 -9.41 111.98 -10.15 Q 112.17 -10.89 112.55 -11.48 Q 112.93 -12.06 113.55 -12.54 Q 114.17 -13.03 115 -13.43 L 115 -13.43 L 130.97 -20.93 L 130.97 -27.6 L 116.39 -27.6 L 116.39 -23.45 L 111.79 -23.45 L 111.79 -27.6 Q 111.79 -28.55 112.15 -29.39 Q 112.51 -30.23 113.14 -30.85 Q 113.76 -31.47 114.61 -31.84 Q 115.45 -32.21 116.39 -32.21 L 116.39 -32.21 L 130.97 -32.21 Q 131.91 -32.21 132.76 -31.84 Q 133.6 -31.47 134.22 -30.85 Q 134.83 -30.23 135.2 -29.39 Q 135.57 -28.55 135.57 -27.6 L 135.57 -27.6 L 135.57 -21.72 Q 135.57 -20.78 135.39 -20.04 Q 135.21 -19.29 134.82 -18.7 Q 134.43 -18.1 133.82 -17.63 Q 133.22 -17.16 132.34 -16.73 L 132.34 -16.73 L 116.39 -9.25 L 116.39 -4.6 L 131.55 -4.6 L 131.55 -8.74 L 136.16 -8.74 L 136.16 0 Z M 143.97 -4.6 L 143.97 -4.6 L 143.97 -27.6 Q 143.97 -28.55 144.33 -29.39 Q 144.69 -30.23 145.32 -30.85 Q 145.95 -31.47 146.79 -31.84 Q 147.64 -32.21 148.58 -32.21 L 148.58 -32.21 L 164.68 -32.21 Q 165.63 -32.21 166.47 -31.84 Q 167.31 -31.47 167.94 -30.85 Q 168.57 -30.23 168.93 -29.39 Q 169.29 -28.55 169.29 -27.6 L 169.29 -27.6 L 169.29 -4.6 Q 169.29 -3.66 168.93 -2.82 Q 168.57 -1.98 167.94 -1.35 Q 167.31 -0.72 166.47 -0.36 Q 165.63 0 164.68 0 L 164.68 0 L 148.58 0 Q 147.64 0 146.79 -0.36 Q 145.95 -0.72 145.32 -1.35 Q 144.69 -1.98 144.33 -2.82 Q 143.97 -3.66 143.97 -4.6 Z M 148.58 -27.6 L 148.58 -4.6 L 164.68 -4.6 L 164.68 -27.6 L 148.58 -27.6 Z M 180.32 -27.6 L 174.79 -27.6 L 174.79 -32.21 L 184.92 -32.21 L 184.92 0 L 180.32 0 L 180.32 -27.6 Z M 193.66 -4.6 L 193.66 -4.6 L 193.66 -27.6 Q 193.66 -28.55 194.02 -29.39 Q 194.38 -30.23 195.01 -30.85 Q 195.63 -31.47 196.48 -31.84 Q 197.32 -32.21 198.26 -32.21 L 198.26 -32.21 L 214.37 -32.21 Q 215.31 -32.21 216.15 -31.84 Q 217 -31.47 217.62 -30.85 Q 218.25 -30.23 218.61 -29.39 Q 218.97 -28.55 218.97 -27.6 L 218.97 -27.6 L 218.97 -4.6 Q 218.97 -3.66 218.61 -2.82 Q 218.25 -1.98 217.62 -1.35 Q 217 -0.72 216.15 -0.36 Q 215.31 0 214.37 0 L 214.37 0 L 198.26 0 Q 197.32 0 196.48 -0.36 Q 195.63 -0.72 195.01 -1.35 Q 194.38 -1.98 194.02 -2.82 Q 193.66 -3.66 193.66 -4.6 Z M 198.26 -27.6 L 198.26 -4.6 L 214.37 -4.6 L 214.37 -27.6 L 198.26 -27.6 Z" stroke-linecap="round" />
</g>
</g>
</g>
<g transform="matrix(1.9211538461538462 0 0 1.9211538461538462 642.4383081993691 376.6932986148156)" id="tagline-6fe268fa-7af8-4199-8c47-a385518543b5-logo"  >
<g style=""  paint-order="stroke"   >
		<g transform="matrix(1 0 0 1 0 0)" id="tagline-6fe268fa-7af8-4199-8c47-a385518543b5-logo-path-0"  >
<path style="stroke: none; stroke-width: 0; stroke-dasharray: none; stroke-linecap: butt; stroke-dashoffset: 0; stroke-linejoin: miter; stroke-miterlimit: 4; fill: rgb(21,32,73); fill-rule: nonzero; opacity: 1;"  paint-order="stroke"  transform=" translate(-54.26500000000001, 48.665)" d="M 61.97 0 L 12.49 0 L 12.49 -97.33 L 61.97 -97.33 Q 69.77 -97.33 76.05 -94.92 Q 82.33 -92.51 86.77 -88.06 Q 91.22 -83.62 93.63 -77.31 Q 96.04 -70.99 96.04 -63.26 L 96.04 -63.26 L 96.04 -34.07 Q 96.04 -26.33 93.63 -20.02 Q 91.22 -13.71 86.77 -9.26 Q 82.33 -4.82 76.05 -2.41 Q 69.77 0 61.97 0 L 61.97 0 Z M 26.4 -83.41 L 26.4 -13.91 L 61.97 -13.91 Q 71.67 -13.91 76.9 -19.14 Q 82.12 -24.37 82.12 -34.07 L 82.12 -34.07 L 82.12 -63.26 Q 82.12 -68.01 80.77 -71.74 Q 79.41 -75.47 76.8 -78.09 Q 74.18 -80.7 70.45 -82.06 Q 66.72 -83.41 61.97 -83.41 L 61.97 -83.41 L 26.4 -83.41 Z" stroke-linecap="round" />
</g>
</g>
</g>
</svg>